<?xml version="1.0" encoding="UTF-8"?>
<svg id="Capa_1" data-name="Capa 1" xmlns="http://www.w3.org/2000/svg" viewBox="0 0 200 43">
  <defs>
    
  </defs>
  <g>
    <polygon class="cls-2" points="29.1 5.15 18.32 7.97 18.32 14.41 29.1 12.55 29.1 5.15"></polygon>
    <polygon class="cls-2" points="2.89 12 2.89 17.07 12.15 15.47 12.15 9.58 2.89 12"></polygon>
  </g>
  <path class="cls-1" d="M18.32,14.41v28.11h-6.16V15.47l6.16-1.06ZM115.6,42.53V12.55h-6.16v24.39l-10.85-24.39h-9.66v29.97s6.16,0,6.16,0l-.05-23.32,10.39,23.32h10.17ZM169.64,12.55l-8.14,24.98-8.14-24.98h-6.2l9.69,29.97h9.29l9.69-29.97h-6.2ZM190.31,12.55h-9.29l-9.69,29.97h6.2l8.14-24.99,8.14,24.99h6.2l-9.69-29.97ZM31.63,42.53h25.17v-5.46h-25.17v5.46h0ZM56.81,30.27v-5.46h-25.17v5.46h25.17ZM56.81,12.55h-25.17v5.46h25.17v-5.46ZM0,.14v5.06l29.1,7.35v-7.4L0,.14ZM133.03,12.26c-7,0-13.69,4.15-13.69,15.3s6.69,15.3,13.69,15.3,13.67-3.87,13.67-15.3-6.67-15.3-13.67-15.3ZM140.46,27.55c0,7.07-3.33,9.88-7.44,9.88s-7.44-2.76-7.44-9.88,3.33-9.88,7.44-9.88,7.44,2.81,7.44,9.88ZM78.72,29.96c3.43-1.02,5.89-3.89,5.89-8.46,0-5.83-3.98-8.94-8.88-8.94h-13.89v29.98h6.16v-24.55s6.35,0,6.41,0c2.12,0,3.83,1.32,3.83,3.83s-1.71,3.83-3.83,3.83h-5.2l10.19,16.89h6.9s-6.4-10.61-7.58-12.57Z"></path>
</svg>