<svg width="46" height="47" viewBox="0 0 46 47" fill="none" xmlns="http://www.w3.org/2000/svg">
<rect x="-0.6" y="0.6" width="44.4" height="44.4" rx="22.2" transform="matrix(-1 0 0 1 44.4001 0.585266)" stroke="black" stroke-width="1.2"></rect>
<path d="M14.0932 24.0924C13.7027 23.7018 13.7027 23.0687 14.0932 22.6781L20.4571 16.3142C20.8477 15.9237 21.4808 15.9237 21.8714 16.3142C22.2619 16.7047 22.2619 17.3379 21.8714 17.7284L16.2145 23.3853L21.8714 29.0421C22.2619 29.4326 22.2619 30.0658 21.8714 30.4563C21.4808 30.8468 20.8477 30.8468 20.4571 30.4563L14.0932 24.0924ZM30.8003 24.3853L14.8003 24.3853L14.8003 22.3853L30.8003 22.3853L30.8003 24.3853Z" fill="black"></path>
</svg>