<svg width="64" height="64" viewBox="0 0 64 64" fill="none" xmlns="http://www.w3.org/2000/svg">
<rect x="0.5" y="0.885132" width="62.7264" height="62.7264" rx="31.3632" fill="#FF8300"></rect>
<g clip-path="url(#clip0_57_5845)">
<path d="M31.9999 48.6667C41.2047 48.6667 48.6666 41.2048 48.6666 32C48.6666 22.7953 41.2047 15.3334 31.9999 15.3334C22.7952 15.3334 15.3333 22.7953 15.3333 32C15.3333 41.2048 22.7952 48.6667 31.9999 48.6667Z" stroke="white" stroke-width="1.5"></path>
<path d="M15.3333 29.367C17.8456 28.1807 19.7038 28.0154 20.9078 28.8712C22.7138 30.1549 22.9402 35.3867 27.0478 32.8862C31.1555 30.3858 25.2888 29.367 26.5624 25.7449C27.836 22.1228 32.0068 24.9364 32.4215 20.9689C32.6978 18.3239 29.5339 17.3118 22.9296 17.9327" stroke="white" stroke-width="1.5"></path>
<path d="M42.0002 18.6666C37.2382 22.8238 35.575 25.3342 37.0107 26.1977C39.1641 27.493 40.0779 25.6694 42.7057 26.1977C45.3335 26.7261 44.7645 30.288 43.3824 30.288C42.0002 30.288 34.8418 29.3765 35.2024 33.5541C35.5629 37.7317 39.8686 38.3502 39.8686 40.6842C39.8686 42.2402 38.916 44.6216 37.0107 47.8285" stroke="white" stroke-width="1.5" stroke-linecap="round"></path>
<path d="M17.0872 39.4387C17.8467 39.1074 18.4177 38.8646 18.8001 38.7101C22.006 37.4149 24.3848 37.1096 25.9364 37.7942C28.6801 39.005 27.6253 41.4501 28.4847 42.351C29.3441 43.2518 31.4901 42.9897 31.4901 44.7034C31.4901 45.8459 31.1063 47.1365 30.3388 48.5751" stroke="white" stroke-width="1.5" stroke-linecap="round"></path>
</g>
<defs>
<clipPath id="clip0_57_5845">
<rect width="40" height="40" fill="white" transform="translate(12 12)"></rect>
</clipPath>
</defs>
</svg>