<svg width="50" height="51" viewBox="0 0 50 51" fill="none" xmlns="http://www.w3.org/2000/svg">
<g clip-path="url(#clip0_522_3315)">
<path d="M37.5 37.5517C37.5 40.3017 39.75 42.5517 42.5 42.5517C45.25 42.5517 47.5 40.3017 47.5 37.5517V34.2184V28.385H49.1667C49.6667 28.385 50 28.0517 50 27.5517V20.885C50 20.385 49.6667 20.0517 49.1667 20.0517H47.5V18.385H48.3333C48.8333 18.385 49.1666 18.0517 49.1666 17.5517V12.5517C49.1666 12.0517 48.8333 11.7184 48.3333 11.7184H36.6667C36.1667 11.7184 35.8334 12.0517 35.8334 12.5517V17.5517C35.8334 18.0517 36.1667 18.385 36.6667 18.385H37.5V20.0517H35.8333C35.3333 20.0517 35 20.385 35 20.885V21.7183H30C30 21.1051 29.6634 20.5677 29.1667 20.2783V17.325C29.6634 17.0356 30 16.4982 30 15.8849V10.8849C30 10.2717 29.6634 9.73435 29.1667 9.4449V6.71834C29.1667 6.21834 28.8334 5.88503 28.3334 5.88503H22.5C22 5.88503 21.6667 6.21834 21.6667 6.71834V9.41062C21.5158 9.48914 21.3769 9.59158 21.25 9.71834C21 10.0516 20.8333 10.4683 20.8333 10.885H15V10.0517C15 9.55173 14.6667 9.21843 14.1667 9.21843H12.5V7.55173H13.3333C13.8333 7.55173 14.1666 7.21843 14.1666 6.71843V1.71843C14.1666 1.21843 13.8333 0.885132 13.3333 0.885132H1.6667C1.1667 0.885132 0.833398 1.21843 0.833398 1.71843V6.71843C0.833398 7.21843 1.1667 7.55173 1.6667 7.55173H2.5V9.21843H0.833301C0.333301 9.21833 0 9.55173 0 10.0517V16.7184C0 17.2184 0.333301 17.5517 0.833301 17.5517H2.5V20.0517V26.7184C2.5 29.4684 4.75 31.7184 7.5 31.7184C10.25 31.7184 12.5 29.4684 12.5 26.7184V20.0517V17.5517H14.1667C14.6667 17.5517 15 17.2184 15 16.7184V15.885H20.8373C20.8573 16.2837 21.0163 16.7401 21.25 17.0517C21.3768 17.1785 21.5158 17.2808 21.6667 17.3594V20.244C21.5158 20.3225 21.3769 20.425 21.25 20.5517C21 20.885 20.8333 21.3017 20.8333 21.7184V26.6351C20.8333 27.0518 21 27.5518 21.25 27.8851C21.3286 27.9637 21.4122 28.0322 21.5 28.0923V44.2184H3.3333C1.5 44.2183 0 45.7183 0 47.5517C0 49.385 1.5 50.885 3.3333 50.885H20.8333C21.0833 50.885 21.25 50.8017 21.4166 50.635L22.8333 49.2183H28L29.4167 50.635C29.5834 50.8017 29.75 50.885 30 50.885H46.6667C48.5 50.885 50 49.385 50 47.5517C50 45.7184 48.5 44.2184 46.6667 44.2184H29V28.2441C29.5871 27.9855 30 27.3982 30 26.7184H35V27.5517C35 28.0517 35.3333 28.385 35.8333 28.385H37.5V34.2183V37.5517ZM45.8333 37.5517C45.8333 39.385 44.3333 40.885 42.5 40.885C40.6667 40.885 39.1667 39.385 39.1667 37.5517V35.0517H45.8334V37.5517H45.8333ZM48.3333 26.7183H46.6666V21.7183H48.3333V26.7183ZM37.5 13.385H47.5V16.7183H46.6667H38.3334H37.5V13.385ZM22.5 21.7183H28.3333V22.5516V25.885V26.7183H28.1666H22.5V21.7183ZM22.5 15.0517V11.7184V10.885H28.3333V15.885H22.5V15.0517ZM23.3333 17.5517H27.5V20.0517H23.3333V17.5517ZM23.3333 7.55173H27.5V9.21843H23.3333V7.55173ZM2.5 2.55173H12.5V5.88503H11.6667H3.3333H2.5V2.55173ZM1.6667 10.885H3.3334V15.885H1.6667V10.885ZM10.8333 26.7183C10.8333 28.5516 9.3333 30.0516 7.5 30.0516C5.6667 30.0516 4.1667 28.5516 4.1667 26.7183V20.885H10.8334L10.8333 26.7183ZM10.8333 19.2183H4.1667V17.5516C4.6667 17.5516 5 17.2183 5 16.7183V10.0517C5 9.55173 4.6667 9.21843 4.1667 9.21843V7.55173H10.8334V9.21843C10.3334 9.21843 10.0001 9.55173 10.0001 10.0517V16.7184C10.0001 17.2184 10.3334 17.5517 10.8334 17.5517L10.8333 19.2183ZM13.3333 15.885H11.6666V10.885H13.3333V11.7183V15.0516V15.885ZM15 12.5517H20.8333V14.2184H15V12.5517ZM48.3333 47.5517C48.3333 48.4684 47.5833 49.2184 46.6666 49.2184H30.3333L28.9166 47.8017C28.7499 47.635 28.5833 47.5517 28.3333 47.5517H22.5C22.25 47.5517 22.0833 47.635 21.9167 47.8017L20.5 49.2184H3.3333C2.4166 49.2184 1.6666 48.4684 1.6666 47.5517C1.6666 46.635 2.4166 45.885 3.3333 45.885H22.3333H28.1666H46.6666C47.5833 45.885 48.3333 46.635 48.3333 47.5517ZM23.1667 44.2183V28.385H27.3334V44.2183H23.1667ZM30 25.0517V23.385H35V25.0517H30ZM36.6667 25.885V22.5517V21.7184H38.3334V26.7184H36.6667V25.885ZM39.1667 20.0517V18.385H45.8334V20.0517C45.3334 20.0517 45.0001 20.385 45.0001 20.885V27.5517C45.0001 28.0517 45.3334 28.385 45.8334 28.385V33.385H39.1667V28.385C39.6667 28.385 40 28.0517 40 27.5517V20.885C40 20.385 39.6667 20.0517 39.1667 20.0517Z" fill="#FF8300"></path>
</g>
<defs>
<clipPath id="clip0_522_3315">
<rect width="50" height="50" fill="white" transform="translate(0 0.885132)"></rect>
</clipPath>
</defs>
</svg>