<svg width="23" height="22" viewBox="0 0 23 22" fill="none" xmlns="http://www.w3.org/2000/svg">
<g clip-path="url(#clip0_30_4912)">
<path d="M11.6016 0C5.52578 0 0.601562 4.92422 0.601562 11C0.601562 17.0758 5.52578 22 11.6016 22C17.6773 22 22.6016 17.0758 22.6016 11C22.6016 4.92422 17.6773 0 11.6016 0ZM18.468 17.8621C17.5742 18.7559 16.5387 19.4562 15.3828 19.9418C14.1883 20.4488 12.9164 20.7023 11.6016 20.7023C10.291 20.7023 9.01914 20.4445 7.82031 19.9418C6.66445 19.452 5.62461 18.7516 4.73516 17.8621C3.84141 16.9684 3.14102 15.9328 2.65547 14.777C2.14844 13.5824 1.89062 12.3105 1.89062 11C1.89062 9.68945 2.14844 8.41758 2.65117 7.21875C3.14102 6.06289 3.84141 5.02305 4.73086 4.13359C5.62891 3.23984 6.66445 2.53945 7.82031 2.04961C9.01914 1.54687 10.291 1.28906 11.6016 1.28906C12.9121 1.28906 14.184 1.54687 15.3828 2.04961C16.5387 2.53945 17.5785 3.23984 18.468 4.1293C19.3617 5.02305 20.0621 6.05859 20.5477 7.21445C21.0547 8.40898 21.3082 9.68086 21.3082 10.9957C21.3082 12.3062 21.0504 13.5781 20.5477 14.777C20.0578 15.9328 19.3574 16.9727 18.468 17.8621Z" fill="white"></path>
<path d="M13.0531 7.24873C13.4957 7.24873 13.9684 7.38623 13.9684 7.38623L14.252 5.70186C14.252 5.70186 13.6504 5.49561 12.2152 5.49561C11.3344 5.49561 10.823 5.83076 10.4492 6.3249C10.0969 6.79326 10.084 7.54522 10.084 8.03076V9.13506H8.94531V10.7808H10.084V16.4956H12.2152V10.7808H13.9039L14.0285 9.13506H12.2152V7.85029C12.2152 7.40772 12.6105 7.24873 13.0531 7.24873Z" fill="white"></path>
</g>
<defs>
<clipPath id="clip0_30_4912">
<rect width="22" height="22" fill="white" transform="translate(0.601562)"></rect>
</clipPath>
</defs>
</svg>