<svg width="20" height="20" viewBox="0 0 20 20" fill="none" xmlns="http://www.w3.org/2000/svg">
<g clip-path="url(#clip0_809_2370)">
<path d="M10 17.5C14.1421 17.5 17.5 14.1421 17.5 10C17.5 5.85786 14.1421 2.5 10 2.5C5.85786 2.5 2.5 5.85786 2.5 10C2.5 14.1421 5.85786 17.5 10 17.5Z" stroke="white" stroke-linejoin="round"></path>
<path d="M10.0002 2.5C10.0002 2.5 7.0835 5 7.0835 10C7.0835 15 10.0002 17.5 10.0002 17.5" stroke="white" stroke-linejoin="round"></path>
<path d="M10 2.5C10 2.5 12.9167 5 12.9167 10C12.9167 15 10 17.5 10 17.5" stroke="white" stroke-linejoin="round"></path>
<path d="M2.5 10H17.5" stroke="white" stroke-linejoin="round"></path>
<path d="M16.25 6.25H3.75" stroke="white" stroke-linejoin="round"></path>
<g filter="url(#filter0_d_809_2370)">
<path d="M16.25 13.75H3.75" stroke="white" stroke-linejoin="round"></path>
</g>
</g>
<defs>
<filter id="filter0_d_809_2370" x="-29.5833" y="13.25" width="79.1667" height="67.6667" filterUnits="userSpaceOnUse" color-interpolation-filters="sRGB">
<feFlood flood-opacity="0" result="BackgroundImageFix"></feFlood>
<feColorMatrix in="SourceAlpha" type="matrix" values="0 0 0 0 0 0 0 0 0 0 0 0 0 0 0 0 0 0 127 0" result="hardAlpha"></feColorMatrix>
<feOffset dy="33.3333"></feOffset>
<feGaussianBlur stdDeviation="16.6667"></feGaussianBlur>
<feColorMatrix type="matrix" values="0 0 0 0 0 0 0 0 0 0 0 0 0 0 0 0 0 0 0.1 0"></feColorMatrix>
<feBlend mode="normal" in2="BackgroundImageFix" result="effect1_dropShadow_809_2370"></feBlend>
<feBlend mode="normal" in="SourceGraphic" in2="effect1_dropShadow_809_2370" result="shape"></feBlend>
</filter>
<clipPath id="clip0_809_2370">
<rect width="20" height="20" fill="white"></rect>
</clipPath>
</defs>
</svg>