<svg width="50" height="51" viewBox="0 0 50 51" fill="none" xmlns="http://www.w3.org/2000/svg">
<path d="M8.51302 26.3852H18.388C18.5049 27.1122 18.8768 27.774 19.4371 28.2519C19.9975 28.7297 20.7096 28.9925 21.446 28.9932H28.554C29.2905 28.9925 30.0026 28.7297 30.5629 28.2519C31.1232 27.774 31.4951 27.1122 31.612 26.3852H41.487C42.551 26.3841 43.5711 25.961 44.3235 25.2086C45.0758 24.4563 45.499 23.4361 45.5 22.3722V17.7182C45.4973 16.6959 45.1039 15.7134 44.4005 14.9716C43.697 14.2299 42.7367 13.785 41.716 13.7282C41.5965 13.0031 41.2237 12.344 40.664 11.8679C40.1043 11.3919 39.3938 11.1297 38.659 11.1282H31.551C30.8207 11.1306 30.1146 11.3903 29.5566 11.8615C28.9987 12.3328 28.6246 12.9855 28.5 13.7052H22.2V12.3772C22.2012 12.2558 22.1583 12.1382 22.0791 12.0462C22 11.9542 21.8902 11.8941 21.77 11.8772L19.723 11.5882L20.966 9.93816C21.0385 9.842 21.0739 9.7229 21.0657 9.60275C21.0574 9.4826 21.006 9.36947 20.921 9.28416L18.292 6.66416C18.2068 6.579 18.0938 6.52746 17.9736 6.51901C17.8535 6.51055 17.7343 6.54576 17.638 6.61816L15.987 7.86216L15.7 5.81516C15.683 5.69502 15.623 5.58515 15.531 5.50604C15.439 5.42693 15.3214 5.38396 15.2 5.38516H11.492C11.3707 5.38396 11.2531 5.42693 11.1611 5.50604C11.0691 5.58515 11.009 5.69502 10.992 5.81516L10.703 7.86216L9.05802 6.61816C8.96175 6.54576 8.84259 6.51055 8.72243 6.51901C8.60228 6.52746 8.48921 6.579 8.40402 6.66416L5.77902 9.28516C5.69387 9.37034 5.64232 9.48341 5.63387 9.60356C5.62542 9.72372 5.66063 9.84289 5.73302 9.93916L6.97702 11.5892L4.93002 11.8852C4.80989 11.9021 4.70002 11.9622 4.62091 12.0542C4.54179 12.1462 4.49883 12.2638 4.50002 12.3852V16.0852C4.50004 16.2056 4.54355 16.322 4.62256 16.413C4.70156 16.5039 4.81074 16.5633 4.93002 16.5802L6.97702 16.8682L5.73302 18.5232C5.66063 18.6194 5.62542 18.7386 5.63387 18.8587C5.64232 18.9789 5.69387 19.092 5.77902 19.1772L8.40002 21.8022C8.48521 21.8873 8.59828 21.9389 8.71843 21.9473C8.83859 21.9558 8.95775 21.9206 9.05402 21.8482L10.704 20.6052L11 22.6512C11.017 22.7713 11.0771 22.8812 11.1691 22.9603C11.2611 23.0394 11.3787 23.0823 11.5 23.0812H15.2C15.3205 23.0811 15.4369 23.0376 15.5278 22.9586C15.6188 22.8796 15.6782 22.7704 15.695 22.6512L15.983 20.6042L17.634 21.8482C17.7303 21.9206 17.8495 21.9558 17.9696 21.9473C18.0898 21.9389 18.2028 21.8873 18.288 21.8022L20.913 19.1772C20.998 19.0918 21.0494 18.9787 21.0577 18.8586C21.0659 18.7384 21.0305 18.6193 20.958 18.5232L19.715 16.8722L21.762 16.5842C21.8813 16.5673 21.9905 16.5079 22.0695 16.417C22.1485 16.326 22.192 16.2096 22.192 16.0892V14.7052H28.49C28.6009 15.4379 28.9707 16.1066 29.5322 16.5902C30.0938 17.0738 30.81 17.3402 31.551 17.3412H38.659C39.3962 17.3403 40.1089 17.0768 40.6693 16.598C41.2298 16.1191 41.6012 15.4562 41.717 14.7282C42.4721 14.7848 43.178 15.1241 43.6939 15.6783C44.2097 16.2326 44.4976 16.961 44.5 17.7182V22.3722C44.499 23.1709 44.1812 23.9367 43.6164 24.5015C43.0515 25.0663 42.2858 25.3841 41.487 25.3852H31.612C31.4951 24.6581 31.1232 23.9963 30.5629 23.5185C30.0026 23.0406 29.2905 22.7778 28.554 22.7772H21.446C20.7096 22.7778 19.9975 23.0406 19.4371 23.5185C18.8768 23.9963 18.5049 24.6581 18.388 25.3852H8.51302C7.44904 25.3862 6.42893 25.8094 5.67657 26.5617C4.92422 27.3141 4.50108 28.3342 4.50002 29.3982V34.0522C4.50278 35.0744 4.89613 36.057 5.59957 36.7987C6.30302 37.5404 7.26335 37.9853 8.28402 38.0422C8.40353 38.7672 8.7763 39.4263 9.33604 39.9024C9.89578 40.3785 10.6062 40.6406 11.341 40.6422H18.449C19.1793 40.6397 19.8855 40.38 20.4434 39.9088C21.0013 39.4375 21.3754 38.7848 21.5 38.0652H27.642C27.8002 40.3923 28.8597 42.566 30.5955 44.1241C32.3313 45.6822 34.6063 46.5018 36.937 46.4087C39.2676 46.3156 41.47 45.3171 43.076 43.6255C44.6819 41.934 45.5648 39.6827 45.5368 37.3503C45.5088 35.018 44.5722 32.7886 42.9261 31.136C41.28 29.4835 39.0543 28.5381 36.7221 28.501C34.3899 28.4638 32.1351 29.3378 30.4373 30.9371C28.7394 32.5364 27.7323 34.7349 27.63 37.0652H21.51C21.3991 36.3324 21.0294 35.6637 20.4678 35.1801C19.9063 34.6965 19.1901 34.4301 18.449 34.4292H11.341C10.6039 34.43 9.89113 34.6935 9.3307 35.1724C8.77027 35.6512 8.39883 36.3142 8.28302 37.0422C7.52797 36.9855 6.82205 36.6462 6.30618 36.092C5.79031 35.5377 5.50243 34.8093 5.50002 34.0522V29.3982C5.50108 28.5994 5.81886 27.8336 6.38368 27.2688C6.9485 26.704 7.71425 26.3862 8.51302 26.3852ZM13.348 17.8032C12.6419 17.8032 11.9517 17.5938 11.3646 17.2015C10.7776 16.8092 10.32 16.2517 10.0498 15.5993C9.77957 14.947 9.70887 14.2292 9.84662 13.5367C9.98437 12.8442 10.3244 12.2081 10.8237 11.7088C11.3229 11.2095 11.959 10.8695 12.6516 10.7318C13.3441 10.594 14.0619 10.6647 14.7142 10.9349C15.3665 11.2051 15.9241 11.6627 16.3164 12.2498C16.7086 12.8369 16.918 13.5271 16.918 14.2332C16.917 15.1797 16.5405 16.0871 15.8712 16.7564C15.2019 17.4256 14.2945 17.8021 13.348 17.8032Z" fill="#FF8300" stroke="#FF8300"></path>
<path d="M38.659 16.3411H31.551C30.9919 16.3411 30.4557 16.119 30.0604 15.7237C29.6651 15.3284 29.443 14.7922 29.443 14.2331C29.443 13.674 29.6651 13.1379 30.0604 12.7425C30.4557 12.3472 30.9919 12.1251 31.551 12.1251H38.659C39.2181 12.1251 39.7542 12.3472 40.1496 12.7425C40.5449 13.1379 40.767 13.674 40.767 14.2331C40.767 14.7922 40.5449 15.3284 40.1496 15.7237C39.7542 16.119 39.2181 16.3411 38.659 16.3411Z" fill="white"></path>
<path d="M21.4459 23.7771H28.5539C29.107 23.7778 29.6376 23.9959 30.0314 24.3842C30.4252 24.7726 30.6505 25.3001 30.6589 25.8531C30.6589 25.8641 30.6529 25.8741 30.6529 25.8851C30.6529 25.8961 30.6589 25.9061 30.6589 25.9171C30.6505 26.4701 30.4252 26.9976 30.0314 27.386C29.6376 27.7743 29.107 27.9924 28.5539 27.9931H21.4459C20.8929 27.9924 20.3623 27.7743 19.9685 27.386C19.5747 26.9976 19.3493 26.4701 19.3409 25.9171C19.3409 25.9061 19.3469 25.8961 19.3469 25.8851C19.3469 25.8741 19.3409 25.8641 19.3409 25.8531C19.3493 25.3001 19.5747 24.7726 19.9685 24.3842C20.3623 23.9959 20.8929 23.7778 21.4459 23.7771Z" fill="white"></path>
<path d="M11.341 35.4291H18.449C19.0081 35.4291 19.5443 35.6512 19.9396 36.0465C20.3349 36.4418 20.557 36.978 20.557 37.5371C20.557 38.0962 20.3349 38.6323 19.9396 39.0277C19.5443 39.423 19.0081 39.6451 18.449 39.6451H11.341C10.782 39.6451 10.2458 39.423 9.85045 39.0277C9.45512 38.6323 9.23303 38.0962 9.23303 37.5371C9.23303 36.978 9.45512 36.4418 9.85045 36.0465C10.2458 35.6512 10.782 35.4291 11.341 35.4291Z" fill="white"></path>
<path d="M22.482 26.3872C22.7592 26.3872 22.984 26.1624 22.984 25.8852C22.984 25.6079 22.7592 25.3832 22.482 25.3832C22.2047 25.3832 21.98 25.6079 21.98 25.8852C21.98 26.1624 22.2047 26.3872 22.482 26.3872Z" fill="#FF8300"></path>
<path d="M25.024 26.3872C25.3012 26.3872 25.526 26.1624 25.526 25.8852C25.526 25.6079 25.3012 25.3832 25.024 25.3832C24.7467 25.3832 24.522 25.6079 24.522 25.8852C24.522 26.1624 24.7467 26.3872 25.024 26.3872Z" fill="#FF8300"></path>
<path d="M27.518 26.3872C27.7952 26.3872 28.02 26.1624 28.02 25.8852C28.02 25.6079 27.7952 25.3832 27.518 25.3832C27.2407 25.3832 27.016 25.6079 27.016 25.8852C27.016 26.1624 27.2407 26.3872 27.518 26.3872Z" fill="#FF8300"></path>
<path d="M32.587 14.7351C32.8642 14.7351 33.089 14.5103 33.089 14.2331C33.089 13.9558 32.8642 13.7311 32.587 13.7311C32.3097 13.7311 32.085 13.9558 32.085 14.2331C32.085 14.5103 32.3097 14.7351 32.587 14.7351Z" fill="#FF8300"></path>
<path d="M35.129 14.7351C35.4062 14.7351 35.631 14.5103 35.631 14.2331C35.631 13.9558 35.4062 13.7311 35.129 13.7311C34.8517 13.7311 34.627 13.9558 34.627 14.2331C34.627 14.5103 34.8517 14.7351 35.129 14.7351Z" fill="#FF8300"></path>
<path d="M37.622 14.7351C37.8992 14.7351 38.124 14.5103 38.124 14.2331C38.124 13.9558 37.8992 13.7311 37.622 13.7311C37.3448 13.7311 37.12 13.9558 37.12 14.2331C37.12 14.5103 37.3448 14.7351 37.622 14.7351Z" fill="#FF8300"></path>
<path d="M17.413 38.0392C17.6903 38.0392 17.915 37.8144 17.915 37.5372C17.915 37.2599 17.6903 37.0352 17.413 37.0352C17.1358 37.0352 16.911 37.2599 16.911 37.5372C16.911 37.8144 17.1358 38.0392 17.413 38.0392Z" fill="#FF8300"></path>
<path d="M14.871 38.0392C15.1483 38.0392 15.373 37.8144 15.373 37.5372C15.373 37.2599 15.1483 37.0352 14.871 37.0352C14.5938 37.0352 14.369 37.2599 14.369 37.5372C14.369 37.8144 14.5938 38.0392 14.871 38.0392Z" fill="#FF8300"></path>
<path d="M12.378 38.0392C12.6552 38.0392 12.88 37.8144 12.88 37.5372C12.88 37.2599 12.6552 37.0352 12.378 37.0352C12.1007 37.0352 11.876 37.2599 11.876 37.5372C11.876 37.8144 12.1007 38.0392 12.378 38.0392Z" fill="#FF8300"></path>
<path d="M36.557 29.5001C38.1281 29.4999 39.6639 29.9656 40.9703 30.8383C42.2766 31.7111 43.2949 32.9516 43.8962 34.403C44.4975 35.8544 44.6549 37.4516 44.3484 38.9925C44.042 40.5334 43.2854 41.9488 42.1745 43.0597C41.0636 44.1706 39.6482 44.9271 38.1073 45.2335C36.5665 45.54 34.9693 45.3826 33.5179 44.7813C32.0664 44.18 30.8259 43.1618 29.9532 41.8554C29.0805 40.549 28.6148 39.0132 28.615 37.4421C28.6176 35.3366 29.4552 33.318 30.9441 31.8292C32.4329 30.3404 34.4515 29.5028 36.557 29.5001Z" fill="white"></path>
<path d="M18.74 16.0001L21.2 15.6551V12.8121L18.744 12.4661C18.6571 12.4545 18.5748 12.4201 18.5054 12.3666C18.436 12.3131 18.3818 12.2423 18.3484 12.1613C18.315 12.0802 18.3034 11.9918 18.3149 11.9049C18.3265 11.818 18.3606 11.7357 18.414 11.6661L19.9 9.68513L17.89 7.67413L15.911 9.17113C15.8415 9.22451 15.7591 9.25867 15.6722 9.27018C15.5853 9.2817 15.4969 9.27016 15.4159 9.23673C15.3348 9.20331 15.264 9.14916 15.2105 9.07973C15.157 9.01029 15.1227 8.92801 15.111 8.84113L14.77 6.38513H11.926L11.581 8.84113C11.5693 8.92801 11.535 9.01029 11.4815 9.07973C11.428 9.14916 11.3572 9.20331 11.2761 9.23673C11.1951 9.27016 11.1067 9.2817 11.0198 9.27018C10.9329 9.25867 10.8505 9.22451 10.781 9.17113L8.8 7.67813L6.793 9.68513L8.286 11.6661C8.33938 11.7357 8.37354 11.818 8.38505 11.9049C8.39656 11.9918 8.38503 12.0802 8.3516 12.1613C8.31817 12.2423 8.26403 12.3131 8.19459 12.3666C8.12516 12.4201 8.04288 12.4545 7.956 12.4661L5.5 12.8121V15.6551L7.956 16.0001C8.04288 16.0118 8.12516 16.0461 8.19459 16.0996C8.26403 16.1531 8.31817 16.224 8.3516 16.305C8.38503 16.386 8.39656 16.4744 8.38505 16.5613C8.37354 16.6482 8.33938 16.7306 8.286 16.8001L6.793 18.7771L8.8 20.7851L10.781 19.2921C10.8505 19.2388 10.9329 19.2046 11.0198 19.1931C11.1067 19.1816 11.1951 19.1931 11.2761 19.2265C11.3572 19.26 11.428 19.3141 11.4815 19.3835C11.535 19.453 11.5693 19.5353 11.581 19.6221L11.926 22.0781H14.77L15.115 19.6221C15.1267 19.5353 15.161 19.453 15.2145 19.3835C15.268 19.3141 15.3388 19.26 15.4199 19.2265C15.5009 19.1931 15.5893 19.1816 15.6762 19.1931C15.7631 19.2046 15.8455 19.2388 15.915 19.2921L17.892 20.7851L19.902 18.7741L18.41 16.7961C18.3566 16.7266 18.3225 16.6442 18.3109 16.5573C18.2994 16.4704 18.311 16.382 18.3444 16.301C18.3778 16.22 18.432 16.1491 18.5014 16.0956C18.5708 16.0421 18.6531 16.0078 18.74 15.9961V16.0001ZM13.348 17.8001C12.6419 17.8001 11.9517 17.5908 11.3646 17.1985C10.7775 16.8062 10.32 16.2486 10.0498 15.5963C9.77955 14.944 9.70885 14.2262 9.8466 13.5337C9.98435 12.8411 10.3244 12.205 10.8236 11.7058C11.3229 11.2065 11.959 10.8665 12.6515 10.7287C13.344 10.591 14.0618 10.6617 14.7142 10.9319C15.3665 11.2021 15.9241 11.6597 16.3163 12.2467C16.7086 12.8338 16.918 13.5241 16.918 14.2301C16.9177 15.1771 16.5416 16.0853 15.8723 16.7553C15.2029 17.4252 14.295 17.8021 13.348 17.8031V17.8001Z" fill="white"></path>
<path d="M13.348 9.66309C12.4441 9.66309 11.5605 9.93111 10.809 10.4333C10.0575 10.9354 9.47172 11.6492 9.12583 12.4842C8.77993 13.3193 8.68943 14.2382 8.86577 15.1246C9.0421 16.0111 9.47735 16.8254 10.1165 17.4646C10.7556 18.1037 11.5699 18.5389 12.4564 18.7153C13.3429 18.8916 14.2618 18.8011 15.0968 18.4552C15.9319 18.1093 16.6456 17.5236 17.1478 16.772C17.6499 16.0205 17.918 15.1369 17.918 14.2331C17.9166 13.0215 17.4347 11.8598 16.578 11.0031C15.7212 10.1463 14.5596 9.66441 13.348 9.66309ZM13.348 17.8031C12.6419 17.8031 11.9517 17.5937 11.3646 17.2014C10.7775 16.8092 10.3199 16.2516 10.0497 15.5993C9.7795 14.9469 9.7088 14.2291 9.84655 13.5366C9.9843 12.8441 10.3243 12.208 10.8236 11.7087C11.3229 11.2094 11.959 10.8694 12.6515 10.7317C13.344 10.5939 14.0618 10.6646 14.7141 10.9348C15.3665 11.205 15.924 11.6626 16.3163 12.2497C16.7086 12.8368 16.918 13.527 16.918 14.2331C16.9169 15.1796 16.5404 16.087 15.8712 16.7563C15.2019 17.4256 14.2945 17.802 13.348 17.8031Z" fill="#FF8300"></path>
<path d="M35.751 39.6481C35.8448 39.7418 35.972 39.7945 36.1045 39.7945C36.2371 39.7945 36.3643 39.7418 36.458 39.6481L40.582 35.5241C40.6731 35.4298 40.7235 35.3035 40.7224 35.1724C40.7212 35.0413 40.6687 34.9159 40.5759 34.8232C40.4832 34.7305 40.3578 34.6779 40.2267 34.6768C40.0956 34.6756 39.9693 34.726 39.875 34.8171L36.1 38.5851L34.272 36.7551C34.1777 36.664 34.0514 36.6136 33.9203 36.6148C33.7892 36.6159 33.6638 36.6685 33.5711 36.7612C33.4784 36.8539 33.4258 36.9793 33.4247 37.1104C33.4236 37.2415 33.474 37.3678 33.565 37.4621L35.751 39.6481Z" fill="#FF8300" stroke="#FF8300"></path>
</svg>