<svg width="23" height="22" viewBox="0 0 23 22" fill="none" xmlns="http://www.w3.org/2000/svg">
<g clip-path="url(#clip0_794_3440)">
<path d="M11.7998 0C5.72402 0 0.799805 4.92422 0.799805 11C0.799805 17.0758 5.72402 22 11.7998 22C17.8756 22 22.7998 17.0758 22.7998 11C22.7998 4.92422 17.8756 0 11.7998 0ZM18.6662 17.8621C17.7725 18.7559 16.7369 19.4562 15.5811 19.9418C14.3865 20.4488 13.1146 20.7023 11.7998 20.7023C10.4893 20.7023 9.21738 20.4445 8.01855 19.9418C6.8627 19.452 5.82285 18.7516 4.9334 17.8621C4.03965 16.9684 3.33926 15.9328 2.85371 14.777C2.34668 13.5824 2.08887 12.3105 2.08887 11C2.08887 9.68945 2.34668 8.41758 2.84941 7.21875C3.33926 6.06289 4.03965 5.02305 4.9291 4.13359C5.82715 3.23984 6.8627 2.53945 8.01855 2.04961C9.21738 1.54687 10.4893 1.28906 11.7998 1.28906C13.1104 1.28906 14.3822 1.54687 15.5811 2.04961C16.7369 2.53945 17.7768 3.23984 18.6662 4.1293C19.56 5.02305 20.2604 6.05859 20.7459 7.21445C21.2529 8.40898 21.5064 9.68086 21.5064 10.9957C21.5064 12.3062 21.2486 13.5781 20.7459 14.777C20.2561 15.9328 19.5557 16.9727 18.6662 17.8621Z" fill="white"></path>
<path d="M15.1772 5.5H8.43115C7.25811 5.5 6.3042 6.45391 6.3042 7.62695V9.87422V14.3773C6.3042 15.5504 7.25811 16.5043 8.43115 16.5043H15.1772C16.3503 16.5043 17.3042 15.5504 17.3042 14.3773V9.86992V7.62266C17.2999 6.45391 16.346 5.5 15.1772 5.5ZM15.7874 6.76758H16.0323V7.0082V8.63242L14.1718 8.63672L14.1675 6.77188L15.7874 6.76758ZM10.2315 9.86992C10.5839 9.38438 11.1554 9.06211 11.7999 9.06211C12.4444 9.06211 13.0159 9.38008 13.3683 9.86992C13.6003 10.1879 13.7335 10.5789 13.7335 11C13.7335 12.0656 12.8655 12.9379 11.7956 12.9379C10.7257 12.9379 9.86631 12.0656 9.86631 11C9.86631 10.5789 10.0038 10.1879 10.2315 9.86992ZM16.23 14.373C16.23 14.9531 15.7573 15.4258 15.1772 15.4258H8.43115C7.85107 15.4258 7.37842 14.9531 7.37842 14.373V9.86992H9.01982C8.87803 10.218 8.79639 10.6004 8.79639 11C8.79639 12.6586 10.1456 14.0078 11.8042 14.0078C13.4628 14.0078 14.812 12.6586 14.812 11C14.812 10.6004 14.7304 10.218 14.5886 9.86992H16.23V14.373Z" fill="white"></path>
</g>
<defs>
<clipPath id="clip0_794_3440">
<rect width="22" height="22" fill="white" transform="translate(0.799805)"></rect>
</clipPath>
</defs>
</svg>