<svg width="23" height="22" viewBox="0 0 23 22" fill="none" xmlns="http://www.w3.org/2000/svg">
<g clip-path="url(#clip0_794_3448)">
<path d="M11.3999 0C5.32412 0 0.399902 4.92422 0.399902 11C0.399902 17.0758 5.32412 22 11.3999 22C17.4757 22 22.3999 17.0758 22.3999 11C22.3999 4.92422 17.4757 0 11.3999 0ZM18.2663 17.8621C17.3726 18.7559 16.337 19.4562 15.1812 19.9418C13.9866 20.4488 12.7147 20.7023 11.3999 20.7023C10.0894 20.7023 8.81748 20.4445 7.61865 19.9418C6.46279 19.452 5.42295 18.7516 4.5335 17.8621C3.63975 16.9684 2.93936 15.9328 2.45381 14.777C1.94678 13.5824 1.68896 12.3105 1.68896 11C1.68896 9.68945 1.94678 8.41758 2.44951 7.21875C2.93936 6.06289 3.63975 5.02305 4.5292 4.13359C5.42725 3.23984 6.46279 2.53945 7.61865 2.04961C8.81748 1.54687 10.0894 1.28906 11.3999 1.28906C12.7104 1.28906 13.9823 1.54687 15.1812 2.04961C16.337 2.53945 17.3769 3.23984 18.2663 4.1293C19.1601 5.02305 19.8604 6.05859 20.346 7.21445C20.853 8.40898 21.1065 9.68086 21.1065 10.9957C21.1065 12.3062 20.8487 13.5781 20.346 14.777C19.8562 15.9328 19.1558 16.9727 18.2663 17.8621Z" fill="white"></path>
<path d="M8.32334 8.73975H6.1792V15.6019H8.32334V8.73975Z" fill="white"></path>
<path d="M7.20605 5.5C6.41543 5.5 5.89551 6.01133 5.89551 6.69023C5.89551 7.35625 6.39824 7.88047 7.17598 7.88047H7.19316C8.00098 7.88047 8.50371 7.35195 8.49941 6.69023C8.48223 6.01133 7.99668 5.5 7.20605 5.5Z" fill="white"></path>
<path d="M14.1798 8.67529C12.9509 8.67529 12.1817 9.34561 12.0399 9.81826V8.73975H9.62939C9.65947 9.31123 9.62939 15.6019 9.62939 15.6019H12.0399V11.8937C12.0399 11.6831 12.0313 11.4769 12.0915 11.3308C12.2548 10.9183 12.6114 10.4886 13.2517 10.4886C14.0896 10.4886 14.4677 11.1245 14.4677 12.0526V15.6019H16.8997V11.7862C16.8997 9.66357 15.7052 8.67529 14.1798 8.67529Z" fill="white"></path>
</g>
<defs>
<clipPath id="clip0_794_3448">
<rect width="22" height="22" fill="white" transform="translate(0.399902)"></rect>
</clipPath>
</defs>
</svg>