<svg width="52" height="51" viewBox="0 0 52 51" fill="none" xmlns="http://www.w3.org/2000/svg">
<path d="M15.6132 33.894C15.5056 32.9455 15.3536 32.0451 15.3109 31.1402C15.22 29.2135 15.1857 27.2839 15.131 25.3554C15.1227 25.0735 15.1746 24.7944 15.5371 24.8129C15.9025 24.8315 15.8987 25.1263 15.8904 25.3989C15.806 28.0461 15.9572 30.6794 16.3271 33.3024C16.392 33.7614 16.5181 33.9468 17.0272 33.9413C19.5612 33.9125 22.0953 33.9144 24.6293 33.9413C25.0892 33.9459 25.27 33.779 25.4082 33.3747C25.9144 31.9005 26.4448 30.4337 26.9881 28.9724C27.0595 28.7795 27.2292 28.5449 27.4016 28.4939C27.524 28.4578 27.7679 28.6673 27.8884 28.8222C28.5059 29.6094 29.1012 30.4151 29.7475 31.27C30.518 30.5635 31.2607 29.8968 31.9811 29.206C32.0812 29.1096 32.0989 28.8982 32.1063 28.7378C32.237 25.9349 32.0683 23.1495 31.651 20.3753C31.6 20.0341 31.4758 19.9498 31.1513 19.9516C28.9575 19.9637 26.7628 19.9581 24.5681 19.9572C24.429 19.9572 24.2566 19.9998 24.1592 19.9349C24.0146 19.8366 23.8477 19.667 23.8338 19.5149C23.8236 19.4073 24.0359 19.2506 24.1787 19.1681C24.2723 19.1143 24.4198 19.1542 24.544 19.1542C26.6608 19.1542 28.7776 19.1542 30.8953 19.1542C31.0613 19.1542 31.2282 19.1542 31.5092 19.1542C31.0956 17.5409 30.7424 15.9906 30.2982 14.4672C29.5268 11.8191 28.4429 9.29618 27.1226 6.8734C26.9686 6.5906 26.8073 6.42834 26.4568 6.41721C25.7633 6.39589 25.0725 6.31151 24.379 6.26979C24.1008 6.2531 23.8143 6.24753 23.8143 5.88592C23.8143 5.48259 24.1323 5.50299 24.4179 5.50577C27.5203 5.54378 30.4735 6.23826 33.2542 7.60496C34.2759 8.10658 35.2384 8.73059 36.2119 9.32492C36.44 9.464 36.6014 9.46679 36.8406 9.37128C37.9393 8.93457 39.0158 8.36712 40.159 8.13161C43.9624 7.3472 47.7287 9.92204 48.5345 13.731C48.8414 15.1802 48.6754 16.5812 48.2063 17.9711C47.4969 20.0694 46.5874 22.0758 45.5155 24.0118C45.3838 24.2492 45.3134 24.5654 45.3366 24.8343C45.8586 31.1244 44.0654 36.6598 39.8577 41.3617C36.6533 44.9425 32.6385 47.1966 27.9088 48.0209C21.2441 49.1808 15.246 47.5999 10.0703 43.2142C6.088 39.8374 3.73012 35.5027 2.85298 30.3632C2.56926 28.6961 2.5331 27.0141 2.63694 25.3285C2.65456 25.0466 2.72039 24.7721 3.08015 24.8157C3.42414 24.8574 3.44268 25.1273 3.42043 25.4138C3.2081 28.1898 3.55395 30.8963 4.43572 33.5379C4.52751 33.8124 4.6397 33.9357 4.94754 33.9348C8.37819 33.9246 11.8088 33.9283 15.2386 33.9274C15.3443 33.9274 15.45 33.9097 15.6122 33.8949L15.6132 33.894ZM37.2717 10.0472C37.841 10.5609 38.3807 11.0189 38.8841 11.515C39.1113 11.7384 39.2652 11.7792 39.5499 11.6021C40.172 11.2127 40.8684 11.0792 41.5934 11.2229C43.7121 11.6439 44.7663 13.8052 43.7492 15.7152C43.2272 16.6943 42.6338 17.6401 42.0218 18.5664C38.7126 23.5751 34.7006 27.9627 30.1888 31.9051C29.677 32.353 29.5815 32.3418 29.1698 31.7957C28.6543 31.1105 28.1369 30.4262 27.5556 29.6557C26.1304 33.6288 24.7406 37.5045 23.3155 41.4757C27.5129 40.6514 31.5796 39.8531 35.6482 39.0548C35.6269 38.9547 35.6287 38.9185 35.613 38.8962C35.18 38.2945 34.746 37.6937 34.3121 37.0928C33.8698 36.4818 33.8726 36.4568 34.4419 35.9672C37.0279 33.7466 39.3978 31.3191 41.4822 28.6191C44.1757 25.131 46.3583 21.3637 47.6462 17.1264C48.9239 12.9243 45.6852 8.68052 41.2949 8.75377C39.8429 8.77787 38.5819 9.37963 37.2717 10.0454V10.0472ZM4.88078 34.735C6.52842 38.6607 9.06803 41.7678 12.545 44.0988C14.826 45.6277 17.3062 46.6848 19.9553 47.1799C19.1097 45.1326 18.1815 43.1456 17.4685 41.0835C16.7546 39.0214 16.2566 36.8842 15.6512 34.734H4.88078V34.735ZM32.2166 19.1097C32.3205 19.131 32.3659 19.1477 32.4104 19.1477C35.0826 19.1496 37.7557 19.1542 40.4279 19.1403C40.5754 19.1403 40.7701 19.0151 40.8609 18.889C41.23 18.3754 41.5563 17.8311 41.9198 17.3119C42.0867 17.0736 42.0682 16.89 41.9235 16.6452C38.8239 11.4139 34.3019 8.1279 28.3928 6.73431C28.2575 6.70186 28.1128 6.70557 27.9014 6.68517C30.0303 10.6443 31.4341 14.7639 32.2175 19.1097H32.2166ZM16.5441 34.7312C16.7916 35.8022 17.0068 36.8277 17.2682 37.8411C18.0888 41.0251 19.2942 44.0589 20.8658 46.9462C21.0188 47.2272 21.1699 47.4135 21.5473 47.4571C23.1968 47.6472 24.8388 47.65 26.4874 47.4543C26.8166 47.4154 26.9872 47.2828 27.1151 47.0148C27.7447 45.6917 28.391 44.377 29.0001 43.0446C29.2904 42.4085 29.511 41.7409 29.7873 41.026C29.6204 41.0446 29.5472 41.0483 29.4758 41.0622C27.3154 41.4831 25.156 41.9097 22.9937 42.325C22.4022 42.4391 22.226 42.2156 22.4337 41.6343C23.0308 39.9644 23.6326 38.2954 24.2315 36.6265C24.4541 36.0071 24.672 35.3859 24.9038 34.7303H16.5441V34.7312ZM27.9366 47.1966C35.2606 45.9143 41.0696 40.3037 43.0686 34.7526C43.026 34.7405 42.9842 34.7173 42.9425 34.7173C41.0436 34.7146 39.1447 34.7127 37.2458 34.7173C37.1308 34.7173 36.9852 34.7424 36.9055 34.8138C36.2398 35.4035 35.5851 36.0062 34.9203 36.6116C35.498 37.4044 36.058 38.161 36.6041 38.9268C36.924 39.3756 36.8193 39.6195 36.2759 39.727C34.5393 40.0692 32.8026 40.4122 31.065 40.7451C30.7776 40.7998 30.6292 40.9305 30.5226 41.2161C30.1119 42.3139 29.6872 43.408 29.2227 44.4836C28.8332 45.3857 28.3826 46.262 27.9376 47.1957L27.9366 47.1966ZM33.0409 28.1954C35.5963 25.6641 37.9532 22.9678 40.0923 19.998H32.4966C32.6784 22.7388 32.8582 25.4434 33.0409 28.1954ZM44.5568 25.7197C42.6217 28.6645 40.3927 31.3544 37.8169 33.9255C39.714 33.9255 41.4571 33.932 43.1993 33.9107C43.3208 33.9088 43.5063 33.7178 43.548 33.5797C43.7946 32.7684 44.0431 31.9543 44.2248 31.1263C44.6133 29.3544 44.7283 27.5584 44.5549 25.7197H44.5568ZM39.8549 12.3754C40.7719 13.6207 41.6862 14.8631 42.6004 16.1037C43.5804 14.8891 43.6129 13.5113 42.6783 12.6054C41.8874 11.8376 40.5781 11.744 39.8549 12.3754Z" fill="#FF8300" stroke="#FF8300"></path>
<path d="M22.3874 13.2998C22.3874 16.1269 22.3874 18.9539 22.3874 21.7801C22.3874 22.7842 21.9544 23.2182 20.9531 23.2191C15.299 23.2191 9.64581 23.2191 3.99171 23.2191C3.02835 23.2191 2.56846 22.774 2.56753 21.8051C2.56197 16.1362 2.56197 10.4663 2.5666 4.79739C2.56753 3.82846 3.02742 3.38525 3.99079 3.38525C9.65971 3.38525 15.3286 3.38525 20.9985 3.38525C21.9368 3.38525 22.3865 3.83217 22.3865 4.77328C22.3884 7.61516 22.3865 10.458 22.3865 13.2998H22.3874ZM9.21558 4.19841C9.0116 4.18821 8.87437 4.17616 8.73715 4.17616C7.17666 4.17523 5.61618 4.1743 4.05569 4.17616C3.4289 4.17616 3.35843 4.24663 3.35843 4.86693C3.35843 10.4904 3.35843 16.1139 3.35843 21.7383C3.35843 22.3484 3.43817 22.4291 4.0594 22.43C5.61989 22.4328 7.18037 22.4319 8.74085 22.43C8.88828 22.43 9.03478 22.4087 9.16181 22.3985C9.18777 22.3197 9.20538 22.2909 9.20538 22.2631C9.21002 21.7226 9.21187 21.182 9.21558 20.6415C9.22022 19.9359 9.42328 19.7272 10.1252 19.7263C11.6699 19.7235 13.2155 19.7244 14.7603 19.7263C15.5558 19.7263 15.745 19.9155 15.7468 20.7064C15.7477 21.2701 15.7468 21.8329 15.7468 22.4106C15.9666 22.4208 16.1038 22.4328 16.241 22.4328C17.7857 22.4337 19.3314 22.4347 20.8761 22.4328C21.5502 22.4328 21.6271 22.3559 21.6271 21.6883C21.6271 16.0954 21.6271 10.5025 21.6271 4.90958C21.6271 4.26703 21.5428 4.17894 20.9123 4.17801C19.3518 4.17523 17.7913 4.17616 16.2308 4.17801C16.0834 4.17801 15.935 4.1947 15.7756 4.20398C15.7644 4.37273 15.7487 4.49419 15.7487 4.61565C15.7468 6.43854 15.7514 8.26142 15.744 10.0852C15.7422 10.6443 15.5159 10.7797 15.0171 10.5349C14.2967 10.1826 13.5716 9.8386 12.8688 9.45473C12.5702 9.29154 12.3393 9.31287 12.0556 9.46586C11.363 9.83952 10.6592 10.1909 9.95364 10.5386C9.465 10.7797 9.22115 10.6295 9.21744 10.088C9.21095 9.17657 9.21558 8.26513 9.21558 7.35369C9.21558 6.32171 9.21558 5.2888 9.21558 4.19934V4.19841ZM10.0362 9.6207C10.7251 9.27393 11.3574 8.98742 11.9545 8.6425C12.3217 8.43017 12.6203 8.43574 12.9856 8.63694C13.6124 8.98186 14.2661 9.27856 14.9346 9.60865V4.2049H10.0362V9.6207ZM10.0241 22.3874H14.9364V20.5617H10.0241V22.3874Z" fill="#FF8300" stroke="#FF8300"></path>
</svg>