<svg width="50" height="51" viewBox="0 0 50 51" fill="none" xmlns="http://www.w3.org/2000/svg">
<g clip-path="url(#clip0_522_3322)">
<path d="M22.5376 46.0013C21.862 46.0013 21.3145 45.4536 21.3145 44.7782C21.3145 44.1028 21.862 43.5551 22.5376 43.5551C22.892 43.5551 23.1801 43.267 23.1801 42.9126V30.8027C23.1801 30.4482 22.892 30.1602 22.5376 30.1602H3.28867C2.93427 30.1602 2.64619 30.4483 2.64619 30.8027V42.9127C2.64619 43.2672 2.9343 43.5552 3.28867 43.5552H17.6505C18.326 43.5552 18.8736 44.1029 18.8736 44.7783C18.8736 45.4537 18.326 46.0014 17.6505 46.0014H3.28867C1.58585 46.0014 0.2 44.6155 0.2 42.9127V30.8027C0.2 29.0998 1.58584 27.714 3.28867 27.714H22.5375C24.2405 27.714 25.6262 29.0999 25.6262 30.8027V42.9127C25.6264 44.6155 24.2405 46.0013 22.5376 46.0013Z" fill="#FF8300" stroke="white" stroke-width="0.4"></path>
<path d="M9.29009 47.9154V48.1154H9.49009H16.3362H16.5362V47.9154V46.2013V46.0013H16.3362H9.49009H9.29009V46.2013V47.9154ZM17.7593 50.5616H8.06694C7.39138 50.5616 6.8438 50.0139 6.8438 49.3385V44.7782C6.8438 44.1028 7.39138 43.5551 8.06694 43.5551H17.7593C18.4349 43.5551 18.9825 44.1028 18.9825 44.7782V49.3385C18.9825 50.0141 18.4348 50.5616 17.7593 50.5616Z" fill="#FF8300" stroke="white" stroke-width="0.4"></path>
<path d="M20.5731 50.5616H5.25322C4.57766 50.5616 4.03008 50.0138 4.03008 49.3384C4.03008 48.663 4.57766 48.1153 5.25322 48.1153H20.5733C21.2489 48.1153 21.7965 48.663 21.7965 49.3384C21.7965 50.0138 21.2487 50.5616 20.5731 50.5616Z" fill="#FF8300" stroke="white" stroke-width="0.4"></path>
<path d="M22.5376 19.496C21.862 19.496 21.3145 18.9482 21.3145 18.2728C21.3145 17.5974 21.862 17.0497 22.5376 17.0497C22.892 17.0497 23.1801 16.7616 23.1801 16.4072V4.29734C23.1801 3.94281 22.892 3.65486 22.5376 3.65486H3.28867C2.93427 3.65486 2.64619 3.94294 2.64619 4.29734V16.4073C2.64619 16.7618 2.9343 17.0498 3.28867 17.0498H17.6505C18.326 17.0498 18.8736 17.5975 18.8736 18.2729C18.8736 18.9483 18.326 19.4961 17.6505 19.4961H3.28867C1.58584 19.496 0.2 18.1102 0.2 16.4073V4.29734C0.2 2.59451 1.58585 1.20867 3.28867 1.20867H22.5375C24.2405 1.20867 25.6262 2.59451 25.6262 4.29734V16.4073C25.6264 18.1102 24.2405 19.496 22.5376 19.496Z" fill="#FF8300" stroke="white" stroke-width="0.4"></path>
<path d="M9.29009 21.4101V21.6101H9.49009H16.3362H16.5362V21.4101V19.696V19.496H16.3362H9.49009H9.29009V19.696V21.4101ZM17.7593 24.0564H8.06694C7.39138 24.0564 6.8438 23.5087 6.8438 22.8333V18.273C6.8438 17.5976 7.39138 17.0499 8.06694 17.0499H17.7593C18.4349 17.0499 18.9825 17.5976 18.9825 18.273V22.8333C18.9825 23.5087 18.4348 24.0564 17.7593 24.0564Z" fill="#FF8300" stroke="white" stroke-width="0.4"></path>
<path d="M20.5731 24.0563H5.25322C4.57766 24.0563 4.03008 23.5086 4.03008 22.8332C4.03008 22.1578 4.57766 21.61 5.25322 21.61H20.5733C21.2489 21.61 21.7965 22.1578 21.7965 22.8332C21.7965 23.5085 21.2487 24.0563 20.5731 24.0563Z" fill="#FF8300" stroke="white" stroke-width="0.4"></path>
<path d="M39.0274 35.6345H39.2274V35.4345V11.7755V11.5755H39.0274H31.4131C30.7376 11.5755 30.19 11.0277 30.19 10.3523C30.19 9.67694 30.7376 9.1292 31.4131 9.1292H40.4505C41.1261 9.1292 41.6737 9.67694 41.6737 10.3523V36.8576C41.6737 37.5331 41.1261 38.0808 40.4505 38.0808H31.4131C30.7376 38.0808 30.19 37.533 30.19 36.8576C30.19 36.1822 30.7376 35.6345 31.4131 35.6345H39.0274Z" fill="#FF8300" stroke="white" stroke-width="0.4"></path>
<path d="M47.0328 24.2001C47.2789 23.7248 47.4186 23.1857 47.4186 22.6136C47.4186 20.7043 45.8709 19.1566 43.9616 19.1566C43.3606 19.1566 42.7957 19.3101 42.3032 19.5798C41.3107 18.3087 39.7645 17.4908 38.0268 17.4908C35.0317 17.4908 32.6037 19.9189 32.6037 22.914C32.6037 23.3167 32.6479 23.7089 32.7312 24.0866C31.6892 24.5389 30.9554 25.5789 30.9554 26.7823C30.9554 28.3976 32.2769 29.7193 33.8924 29.7193H45.6398C47.2551 29.7193 48.5767 28.3978 48.5767 26.7823C48.5768 25.6703 47.9501 24.6983 47.0328 24.2001Z" fill="white"></path>
<path d="M33.2187 25.2085L33.2187 25.2085C33.7554 24.9755 34.052 24.3949 33.926 23.8233C33.8604 23.5256 33.8271 23.2198 33.8271 22.9138C33.8271 20.5978 35.7109 18.714 38.0269 18.714C39.3286 18.714 40.5366 19.3043 41.3393 20.3326L33.2187 25.2085ZM33.2187 25.2085C32.5884 25.4823 32.1791 26.0992 32.1791 26.7824C32.1791 27.7274 32.9476 28.4961 33.8928 28.4961H45.6402C46.5853 28.4961 47.354 27.7275 47.354 26.7824C47.354 26.1543 47.0061 25.5773 46.4492 25.2752C45.864 24.9573 45.6405 24.2295 45.9467 23.638L45.9467 23.638M33.2187 25.2085L45.9467 23.638M45.9467 23.638C46.1118 23.3191 46.1957 22.9739 46.1957 22.6136M45.9467 23.638L46.1957 22.6136M46.1957 22.6136C46.1957 21.3816 45.1937 20.3798 43.9618 20.3798M46.1957 22.6136L43.9618 20.3798M43.9618 20.3798C43.5825 20.3798 43.2217 20.4716 42.8913 20.6526M43.9618 20.3798L42.8913 20.6526M42.8913 20.6526C42.3656 20.9405 41.7084 20.8051 41.3393 20.3327L42.8913 20.6526ZM31.3191 23.5171L31.4017 23.452L31.3948 23.347C31.3855 23.2028 31.3807 23.0582 31.3807 22.9138C31.3807 19.2493 34.3625 16.2677 38.0268 16.2677C39.7323 16.2677 41.3335 16.9063 42.5547 18.0478L42.6359 18.1238L42.7433 18.0949C43.1392 17.9882 43.5493 17.9334 43.9614 17.9334C46.5417 17.9334 48.6416 20.0332 48.6416 22.6135C48.6416 22.9638 48.6016 23.3139 48.5236 23.6552L48.499 23.7632L48.5774 23.8414C49.3495 24.6115 49.7999 25.6638 49.7999 26.7823C49.7999 29.0759 47.9335 30.9423 45.6399 30.9423H33.8925C31.5989 30.9423 29.7325 29.076 29.7325 26.7824C29.7325 25.491 30.3316 24.2954 31.3191 23.5171Z" fill="#FF8300" stroke="white" stroke-width="0.4"></path>
</g>
<defs>
<clipPath id="clip0_522_3322">
<rect width="50" height="50" fill="white" transform="translate(0 0.885132)"></rect>
</clipPath>
</defs>
</svg>