<svg width="63" height="64" viewBox="0 0 63 64" fill="none" xmlns="http://www.w3.org/2000/svg">
<rect x="0.166504" y="0.885132" width="62.7264" height="62.7264" rx="31.3632" fill="#7A00C9"></rect>
<path d="M47.8331 48.699H14.4998" stroke="white" stroke-width="2" stroke-linecap="round"></path>
<path d="M46.1664 48.6989V33.6989M29.5071 20.3656C29.5369 18.2993 29.6902 17.1278 30.4761 16.3419C31.4524 15.3656 33.0237 15.3656 36.1664 15.3656H39.4997C42.6426 15.3656 44.2139 15.3656 45.1902 16.3419C46.1664 17.3182 46.1664 18.8896 46.1664 22.0323V27.0323" stroke="white" stroke-width="2" stroke-linecap="round"></path>
<path d="M36.1665 48.6989V38.6989M16.1665 48.6989V33.6989M16.1665 27.0323C16.1665 23.8896 16.1665 22.3182 17.1428 21.3419C18.1191 20.3656 19.6905 20.3656 22.8332 20.3656H29.4998C32.6425 20.3656 34.2138 20.3656 35.1902 21.3419C36.1665 22.3182 36.1665 23.8896 36.1665 27.0323V32.0323" stroke="white" stroke-width="2" stroke-linecap="round"></path>
<path d="M26.1665 48.699V43.699" stroke="white" stroke-width="2" stroke-linecap="round"></path>
<path d="M21.1665 25.3656H31.1665" stroke="white" stroke-width="2" stroke-linecap="round"></path>
<path d="M21.1665 30.3656H22.8332M31.1665 30.3656H26.9998" stroke="white" stroke-width="2" stroke-linecap="round"></path>
<path d="M21.1665 35.3656H31.1665" stroke="white" stroke-width="2" stroke-linecap="round"></path>
</svg>