<svg width="64" height="64" viewBox="0 0 64 64" fill="none" xmlns="http://www.w3.org/2000/svg">
<rect x="0.833252" y="0.885132" width="62.7264" height="62.7264" rx="31.3632" fill="#2E004F"></rect>
<g clip-path="url(#clip0_57_5854)">
<path d="M31.8334 14.1188C28.5858 14.1188 25.9534 16.7513 25.9534 19.9988C25.9534 23.2462 28.5858 25.8788 31.8334 25.8788C35.0809 25.8788 37.7134 23.2462 37.7134 19.9988" stroke="#FF8300" stroke-width="2" stroke-linecap="round"></path>
<path d="M19.0934 37.6388C15.846 37.6388 13.2134 40.2713 13.2134 43.5188C13.2134 46.7663 15.846 49.3988 19.0934 49.3988C22.3408 49.3988 24.9734 46.7663 24.9734 43.5188" stroke="#FF8300" stroke-width="2" stroke-linecap="round"></path>
<path d="M44.5734 49.3988C41.3258 49.3988 38.6934 46.7663 38.6934 43.5188C38.6934 40.2713 41.3258 37.6388 44.5734 37.6388C47.8209 37.6388 50.4534 40.2713 50.4534 43.5188" stroke="#FF8300" stroke-width="2" stroke-linecap="round"></path>
<path d="M47.5133 33.7189C47.5133 29.0356 45.4602 24.832 42.2049 21.9589M16.1533 33.7189C16.1533 29.0356 18.2065 24.832 21.4617 21.9589M27.9133 48.9049C29.1662 49.2274 30.4797 49.3989 31.8333 49.3989C33.1869 49.3989 34.5005 49.2274 35.7533 48.9049" stroke="#FF8300" stroke-width="2" stroke-linecap="round"></path>
</g>
<defs>
<clipPath id="clip0_57_5854">
<rect width="40" height="40" fill="white" transform="translate(11.8333 11.7588)"></rect>
</clipPath>
</defs>
</svg>