<svg width="99" height="99" viewBox="0 0 99 99" fill="none" xmlns="http://www.w3.org/2000/svg">
<g clip-path="url(#clip0_522_3992)">
<path d="M84.024 49.6116C84.024 30.4368 68.4246 14.8374 49.2498 14.8374C30.075 14.8374 14.4756 30.4368 14.4756 49.6116C14.4756 68.7864 30.075 84.3858 49.2498 84.3858C68.4246 84.3858 84.024 68.7864 84.024 49.6116ZM49.2514 81.2245C45.9462 81.2245 42.7612 80.7108 39.7659 79.7671V60.6761H36.6046V78.5674C34.9449 77.8403 33.3596 76.9773 31.8627 75.9862V60.6761C31.8627 56.3183 35.4081 52.7729 39.7659 52.7729H58.7336C63.0915 52.7729 66.6369 56.3183 66.6369 60.6761H56.5492L53.8242 55.2276L50.9964 56.6423L53.0149 60.6761H42.9272V63.8374H46.0885V65.418L47.2977 73.993C47.6296 76.3134 49.6465 78.0632 51.9922 78.0632H62.9397C58.7906 80.0675 54.1593 81.2245 49.2514 81.2245ZM36.6046 36.9664C36.6046 29.9942 42.2776 24.3213 49.2498 24.3213C56.222 24.3213 61.8949 29.9942 61.8949 36.9664C61.8949 43.9387 56.222 49.6116 49.2498 49.6116C42.2776 49.6116 36.6046 43.9387 36.6046 36.9664ZM68.2175 65.3058L67.0399 73.5457C66.9309 74.3187 66.2575 74.9019 65.4767 74.9019H51.9922C51.2114 74.9019 50.538 74.3187 50.4289 73.5457L49.2498 65.3058V63.8374H54.5955L57.3206 69.2859L60.1483 67.8712L58.1298 63.8374H68.2175V65.3058ZM70.2929 73.1379L71.3646 65.6425L71.3709 63.8374H74.5401V60.6761H69.7982C69.7982 54.5764 64.8334 49.6116 58.7336 49.6116H58.6925C62.5462 46.7269 65.0562 42.1399 65.0562 36.9664C65.0562 28.2508 57.9655 21.16 49.2498 21.16C40.5341 21.16 33.4433 28.2508 33.4433 36.9664C33.4433 42.1399 35.9534 46.7269 39.807 49.6116H39.7659C33.6662 49.6116 28.7014 54.5764 28.7014 60.6761V73.5868C21.941 67.7843 17.6369 59.1982 17.6369 49.6116C17.6369 32.1802 31.8184 17.9987 49.2498 17.9987C66.6811 17.9987 80.8627 32.1802 80.8627 49.6116C80.8627 58.9579 76.7625 67.3448 70.2929 73.1379Z" fill="white"></path>
<path d="M90.312 48.2143L88.0627 46.7158L86.3098 49.346L92.1297 53.2265L97.7885 47.5678L95.5534 45.3328L93.4543 47.4319C92.3131 24.0367 72.9233 5.35352 49.25 5.35352V8.51481C71.4438 8.51481 89.5707 26.1991 90.312 48.2143Z" fill="white"></path>
<path d="M8.18788 51.0088L10.4371 52.5073L12.1901 49.8771L6.37014 45.9966L0.711426 51.6553L2.94646 53.8903L5.04555 51.7912C6.18678 75.1864 25.5766 93.8696 49.2499 93.8696V90.7083C27.056 90.7083 8.9292 73.024 8.18788 51.0088Z" fill="white"></path>
<path d="M12.8952 25.9019C19.8674 25.9019 25.5403 20.229 25.5403 13.2567C25.5403 6.28451 19.8674 0.611572 12.8952 0.611572C5.92294 0.611572 0.25 6.28451 0.25 13.2567C0.25 20.229 5.92294 25.9019 12.8952 25.9019ZM12.8952 3.77286C18.1255 3.77286 22.379 8.02638 22.379 13.2567C22.379 18.4871 18.1255 22.7406 12.8952 22.7406C7.66481 22.7406 3.41129 18.4871 3.41129 13.2567C3.41129 8.02638 7.66481 3.77286 12.8952 3.77286Z" fill="white"></path>
<path d="M11.3146 19.4987V21.16H14.4759V19.4987C16.2778 19.132 17.6372 17.5355 17.6372 15.6277C17.6372 13.448 15.8653 11.6761 13.6856 11.6761H12.1049C11.6703 11.6761 11.3146 11.3205 11.3146 10.8858C11.3146 10.4511 11.6703 10.0955 12.1049 10.0955H13.6856C14.1203 10.0955 14.4759 10.4511 14.4759 10.8858V11.6761H17.6372V10.8858C17.6372 8.97635 16.2778 7.38148 14.4759 7.01477V5.35352H11.3146V7.01477C9.51268 7.38148 8.15332 8.97635 8.15332 10.8858C8.15332 13.0655 9.92522 14.8374 12.1049 14.8374H13.6856C14.1203 14.8374 14.4759 15.193 14.4759 15.6277C14.4759 16.0624 14.1203 16.418 13.6856 16.418H12.1049C11.6703 16.418 11.3146 16.0624 11.3146 15.6277V14.8374H8.15332V15.6277C8.15332 17.5371 9.51268 19.132 11.3146 19.4987Z" fill="white"></path>
<path d="M85.6046 73.3213C78.6324 73.3213 72.9595 78.9942 72.9595 85.9664C72.9595 92.9387 78.6324 98.6116 85.6046 98.6116C92.5769 98.6116 98.2498 92.9387 98.2498 85.9664C98.2498 78.9942 92.5769 73.3213 85.6046 73.3213ZM85.6046 95.4503C80.3743 95.4503 76.1208 91.1968 76.1208 85.9664C76.1208 80.7361 80.3743 76.4826 85.6046 76.4826C90.835 76.4826 95.0885 80.7361 95.0885 85.9664C95.0885 91.1968 90.835 95.4503 85.6046 95.4503Z" fill="white"></path>
<path d="M87.1854 79.7245V78.0632H84.0241V79.7245C82.2221 80.0912 80.8628 81.6877 80.8628 83.5955C80.8628 85.7752 82.6347 87.5471 84.8144 87.5471H86.3951C86.8297 87.5471 87.1854 87.9027 87.1854 88.3374C87.1854 88.7721 86.8297 89.1277 86.3951 89.1277H84.8144C84.3797 89.1277 84.0241 88.7721 84.0241 88.3374V87.5471H80.8628V88.3374C80.8628 90.2468 82.2221 91.8417 84.0241 92.2084V93.8697H87.1854V92.2084C88.9873 91.8417 90.3467 90.2453 90.3467 88.3374C90.3467 86.1577 88.5748 84.3858 86.3951 84.3858H84.8144C84.3797 84.3858 84.0241 84.0302 84.0241 83.5955C84.0241 83.1608 84.3797 82.8052 84.8144 82.8052H86.3951C86.8297 82.8052 87.1854 83.1608 87.1854 83.5955V84.3858H90.3467V83.5955C90.3467 81.6861 88.9873 80.0912 87.1854 79.7245Z" fill="white"></path>
<path d="M9.73404 82.8052H6.57275V85.9665H9.73404V82.8052Z" fill="white"></path>
<path d="M5.92187 86.2341L3.68652 83.9988L1.45118 86.2341L3.68652 88.4695L5.92187 86.2341Z" fill="white"></path>
<path d="M3.41129 89.1277H0.25V92.289H3.41129V89.1277Z" fill="white"></path>
<path d="M1.45118 95.1799L3.68652 97.4153L5.92187 95.1799L3.68652 92.9446L1.45118 95.1799Z" fill="white"></path>
<path d="M9.73404 95.4502H6.57275V98.6115H9.73404V95.4502Z" fill="white"></path>
<path d="M10.3809 95.1809L12.6162 97.4163L14.8516 95.1809L12.6162 92.9456L10.3809 95.1809Z" fill="white"></path>
<path d="M16.0563 89.1277H12.895V92.289H16.0563V89.1277Z" fill="white"></path>
<path d="M14.856 86.2351L12.6206 83.9998L10.3853 86.2351L12.6206 88.4705L14.856 86.2351Z" fill="white"></path>
<path d="M91.9274 0.611572H88.7661V3.77286H91.9274V0.611572Z" fill="white"></path>
<path d="M88.1094 4.04614L85.874 1.81079L83.6387 4.04614L85.874 6.28149L88.1094 4.04614Z" fill="white"></path>
<path d="M85.6046 6.93408H82.4434V10.0954H85.6046V6.93408Z" fill="white"></path>
<path d="M83.6387 12.988L85.874 15.2234L88.1094 12.988L85.874 10.7527L83.6387 12.988Z" fill="white"></path>
<path d="M91.9274 13.2568H88.7661V16.4181H91.9274V13.2568Z" fill="white"></path>
<path d="M94.8169 15.2209L97.0522 12.9856L94.8169 10.7502L92.5816 12.9856L94.8169 15.2209Z" fill="white"></path>
<path d="M98.2502 6.93408H95.0889V10.0954H98.2502V6.93408Z" fill="white"></path>
<path d="M97.0503 4.04492L94.8149 1.80957L92.5796 4.04492L94.8149 6.28027L97.0503 4.04492Z" fill="white"></path>
</g>
<defs>
<clipPath id="clip0_522_3992">
<rect width="98" height="98" fill="white" transform="translate(0.25 0.611572)"></rect>
</clipPath>
</defs>
</svg>