<svg width="99" height="99" viewBox="0 0 99 99" fill="none" xmlns="http://www.w3.org/2000/svg">
<g clip-path="url(#clip0_522_3976)">
<path d="M17.0841 79.0114C19.7909 79.0114 21.984 76.8182 21.984 74.1114C21.984 71.4045 19.7909 69.2114 17.0841 69.2114C14.3772 69.2114 12.1841 71.4045 12.1841 74.1114C12.1841 76.8182 14.3772 79.0114 17.0841 79.0114ZM17.0841 72.4779C17.9869 72.4779 18.7173 73.2085 18.7173 74.1112C18.7173 75.0141 17.9867 75.7445 17.0841 75.7445C16.1814 75.7445 15.4508 75.0139 15.4508 74.1112C15.4506 73.2085 16.1812 72.4779 17.0841 72.4779Z" fill="white"></path>
<path d="M30.1505 79.0114C32.8573 79.0114 35.0504 76.8182 35.0504 74.1114C35.0504 71.4045 32.8573 69.2114 30.1505 69.2114C27.4436 69.2114 25.2505 71.4045 25.2505 74.1114C25.2505 76.8182 27.4436 79.0114 30.1505 79.0114ZM30.1505 72.4779C31.0531 72.4779 31.7837 73.2085 31.7837 74.1112C31.7837 75.0141 31.0531 75.7445 30.1505 75.7445C29.2476 75.7445 28.5172 75.0139 28.5172 74.1112C28.5172 73.2085 29.2478 72.4779 30.1505 72.4779Z" fill="white"></path>
<path d="M43.2169 79.0114C45.9237 79.0114 48.1168 76.8182 48.1168 74.1114C48.1168 71.4045 45.9237 69.2114 43.2169 69.2114C40.51 69.2114 38.3169 71.4045 38.3169 74.1114C38.3169 76.8182 40.51 79.0114 43.2169 79.0114ZM43.2169 72.4779C44.1195 72.4779 44.8501 73.2085 44.8501 74.1112C44.8501 75.0141 44.1195 75.7445 43.2169 75.7445C42.314 75.7445 41.5836 75.0139 41.5836 74.1112C41.5836 73.2085 42.3142 72.4779 43.2169 72.4779Z" fill="white"></path>
<path d="M56.2838 79.0114C58.9906 79.0114 61.1837 76.8182 61.1837 74.1114C61.1837 71.4045 58.9906 69.2114 56.2838 69.2114C53.5769 69.2114 51.3838 71.4045 51.3838 74.1114C51.3838 76.8182 53.5769 79.0114 56.2838 79.0114ZM56.2838 72.4779C57.1864 72.4779 57.917 73.2085 57.917 74.1112C57.917 75.0141 57.1864 75.7445 56.2838 75.7445C55.3811 75.7445 54.6505 75.0139 54.6505 74.1112C54.6503 73.2085 55.3809 72.4779 56.2838 72.4779Z" fill="white"></path>
<path d="M69.3502 79.0114C72.057 79.0114 74.2501 76.8182 74.2501 74.1114C74.2501 71.4045 72.057 69.2114 69.3502 69.2114C66.6433 69.2114 64.4502 71.4045 64.4502 74.1114C64.4502 76.8182 66.6433 79.0114 69.3502 79.0114ZM69.3502 72.4779C70.2528 72.4779 70.9834 73.2085 70.9834 74.1112C70.9834 75.0141 70.2528 75.7445 69.3502 75.7445C68.4475 75.7445 67.7169 75.0139 67.7169 74.1112C67.7169 73.2085 68.4475 72.4779 69.3502 72.4779Z" fill="white"></path>
<path d="M82.4171 79.0114C85.1239 79.0114 87.317 76.8182 87.317 74.1114C87.317 71.4045 85.1239 69.2114 82.4171 69.2114C79.7102 69.2114 77.5171 71.4045 77.5171 74.1114C77.5171 76.8182 79.7102 79.0114 82.4171 79.0114ZM82.4171 72.4779C83.3197 72.4779 84.0503 73.2085 84.0503 74.1112C84.0503 75.0141 83.3197 75.7445 82.4171 75.7445C81.5144 75.7445 80.7838 75.0139 80.7838 74.1112C80.7838 73.2085 81.5144 72.4779 82.4171 72.4779Z" fill="white"></path>
<path d="M97.1167 95.3445H93.85V85.5446H94.8817C97.0182 85.5446 98.7494 83.8126 98.7494 81.6769V66.5457C98.7494 64.6152 97.3332 63.0191 95.4835 62.7295V56.9287C95.4835 54.9607 94.0782 53.321 92.2168 52.9556V2.24508C92.2168 1.34298 91.4856 0.611816 90.5835 0.611816H80.7836H30.1504C29.2483 0.611816 28.5171 1.34298 28.5171 2.24508V12.045C28.5171 12.9471 29.2485 13.6783 30.1504 13.6783H31.7837V18.5782C31.7837 19.4803 32.5148 20.2115 33.4169 20.2115H35.0502V23.4782C35.0502 25.6122 36.4136 27.426 38.3169 28.0984V33.2782C38.3169 34.1803 39.0481 34.9114 39.9502 34.9114C40.8522 34.9114 41.5834 34.1803 41.5834 33.2782V28.0984C43.4866 27.4258 44.8501 25.6122 44.8501 23.4782V20.2115H46.4834C47.3855 20.2115 48.1166 19.4801 48.1166 18.5782V13.6783H69.3498V21.845C69.3498 27.6051 73.6089 32.3675 79.1497 33.1603V52.8782H49.7499V41.445C49.7499 40.5429 49.0187 39.8118 48.1166 39.8118H31.7835H23.6172V36.5451C23.6172 35.643 22.886 34.9118 21.9839 34.9118C21.0818 34.9118 20.3507 35.643 20.3507 36.5451V46.345C20.3507 47.2471 21.0818 47.9783 21.9839 47.9783C22.886 47.9783 23.6172 47.2471 23.6172 46.345V43.0783H30.1504V52.8782H8.06799C5.83142 52.8782 4.01729 54.6924 4.01729 56.9289V62.7297C2.16735 63.0195 0.75 64.6154 0.75 66.5457V81.6769C0.75 83.8126 2.48298 85.5446 4.61925 85.5446H5.65055V95.3445H2.38403C1.48193 95.3445 0.750766 96.0757 0.750766 96.9778C0.750766 97.8799 1.48193 98.611 2.38403 98.611H7.284H17.0839H82.4168H92.2168H97.1167C98.0188 98.611 98.75 97.8799 98.75 96.9778C98.75 96.0757 98.0188 95.3445 97.1167 95.3445ZM31.7839 3.87834H79.1503V10.4116H70.9836H46.4838H33.4171H31.7839V3.87834ZM41.5838 23.4782C41.5838 24.3809 40.8532 25.1115 39.9505 25.1115C39.0479 25.1115 38.3173 24.3809 38.3173 23.4782V20.2115H41.584L41.5838 23.4782ZM44.8503 16.945H43.2171H36.6838H35.0506V13.6783H44.8505V16.945H44.8503ZM72.6169 21.845V13.6783H79.1501V29.8482C75.4223 29.0917 72.6169 25.7963 72.6169 21.845ZM82.4168 31.6449V12.045V3.87834H88.9501V52.878H82.4168V31.6449ZM33.4171 43.0781H46.4838V52.878H33.4171V43.0781ZM7.284 56.9287C7.284 56.4964 7.63561 56.1448 8.06799 56.1448H31.7839H48.117H80.7836H90.5835H91.4328C91.8652 56.1448 92.2168 56.4964 92.2168 56.9287V62.678H7.284V56.9287ZM4.01671 81.6769V66.5457C4.01671 66.2146 4.28678 65.9447 4.61945 65.9447H5.65074H93.8502H94.8819C95.2138 65.9447 95.4829 66.2138 95.4829 66.5457V81.6769C95.4829 82.0088 95.2138 82.2779 94.8819 82.2779H92.2168H82.4168H17.0839H7.284H4.61925C4.28659 82.2779 4.01671 82.008 4.01671 81.6769ZM80.7836 85.5446V95.3445H18.7172V85.5446H80.7836ZM8.91726 95.3445V85.5446H15.4505V95.3445H8.91726ZM84.0501 95.3445V85.5446H90.5833V95.3445H84.0501Z" fill="white"></path>
</g>
<defs>
<clipPath id="clip0_522_3976">
<rect width="98" height="98" fill="white" transform="translate(0.75 0.611572)"></rect>
</clipPath>
</defs>
</svg>