<svg width="23" height="22" viewBox="0 0 23 22" fill="none" xmlns="http://www.w3.org/2000/svg">
<g clip-path="url(#clip0_30_4922)">
<path d="M11.2012 0C5.12539 0 0.201172 4.92422 0.201172 11C0.201172 17.0758 5.12539 22 11.2012 22C17.277 22 22.2012 17.0758 22.2012 11C22.2012 4.92422 17.277 0 11.2012 0ZM18.0676 17.8621C17.1738 18.7559 16.1383 19.4562 14.9824 19.9418C13.7879 20.4488 12.516 20.7023 11.2012 20.7023C9.89062 20.7023 8.61875 20.4445 7.41992 19.9418C6.26406 19.452 5.22422 18.7516 4.33477 17.8621C3.44102 16.9684 2.74063 15.9328 2.25508 14.777C1.74805 13.5824 1.49023 12.3105 1.49023 11C1.49023 9.68945 1.74805 8.41758 2.25078 7.21875C2.74062 6.06289 3.44102 5.02305 4.33047 4.13359C5.22852 3.23984 6.26406 2.53945 7.41992 2.04961C8.61875 1.54687 9.89062 1.28906 11.2012 1.28906C12.5117 1.28906 13.7836 1.54687 14.9824 2.04961C16.1383 2.53945 17.1781 3.23984 18.0676 4.1293C18.9613 5.02305 19.6617 6.05859 20.1473 7.21445C20.6543 8.40898 20.9078 9.68086 20.9078 10.9957C20.9078 12.3062 20.65 13.5781 20.1473 14.777C19.6574 15.9328 18.957 16.9727 18.0676 17.8621Z" fill="white"></path>
<path d="M14.8062 7.14136H7.59609C7.59609 7.14136 5.70117 7.14136 5.70117 9.03628V12.9679C5.70117 12.9679 5.70117 14.8628 7.59609 14.8628H14.8062C14.8062 14.8628 16.7012 14.8628 16.7012 12.9679V9.03628C16.7012 9.03628 16.7012 7.14136 14.8062 7.14136ZM9.73594 13.1183V8.88589L13.3367 11.0042L9.73594 13.1183Z" fill="white"></path>
</g>
<defs>
<clipPath id="clip0_30_4922">
<rect width="22" height="22" fill="white" transform="translate(0.201172)"></rect>
</clipPath>
</defs>
</svg>